<svg width="398" height="128" viewBox="0 0 398 128" fill="none" xmlns="http://www.w3.org/2000/svg">
<g clip-path="url(#clip0_321_6)">
<path d="M7.13988 113.444C11.0878 113.444 14.2903 116.698 14.2903 120.719C14.2903 124.735 11.0878 127.995 7.14513 127.995C3.1972 127.995 0 124.74 0 120.719C0 116.703 3.20245 113.449 7.13988 113.449M88.1093 113.449C92.0572 113.449 95.2491 116.703 95.2491 120.724C95.2491 124.74 92.0572 128 88.1093 128C84.1666 128 80.9694 124.745 80.9694 120.724C80.9694 116.709 84.1666 113.449 88.1093 113.449ZM104.851 25.6115C105.122 26.5303 105.02 27.5188 104.569 28.3634C104.117 29.2081 103.351 29.8411 102.436 30.126C98.6878 31.2546 96.2519 32.6771 95.0601 34.2362C93.8054 35.8792 93.1177 37.8897 92.9969 40.1732V90.3622C92.7869 96.21 91.4377 100.819 88.8075 104.115C86.0723 107.559 81.8724 109.496 76.0817 110.058H18.6372C13.508 110.058 9.27134 108.719 6.0584 105.953C2.84545 103.186 0.860985 99.1811 0.0472492 94.0892L0 93.5066V62.3254C0.241496 56.9186 1.93722 52.4567 5.12916 49.1181C8.37886 45.7323 12.9148 44 18.6372 43.8425H68.6058C70.5798 43.8425 72.1758 45.4698 72.1758 47.475C72.1842 48.4306 71.8129 49.3504 71.1436 50.0325C70.4742 50.7146 69.5615 51.1031 68.6058 51.1128H18.7317C14.8467 51.2178 12.0853 52.2729 10.2426 54.1995C8.35261 56.1732 7.30263 58.9291 7.14513 62.4882V93.1968C7.72262 96.5249 8.9091 98.8714 10.6731 100.388C12.4843 101.953 15.0935 102.777 18.6372 102.777L75.73 102.793C79.4102 102.425 81.8514 101.302 83.2583 99.5276C84.7808 97.6168 85.6943 94.4882 85.8518 90.2205V39.9842C86.0513 36.063 87.2378 32.6194 89.4217 29.7585C91.6739 26.8189 95.3594 24.6666 100.415 23.1443C100.868 23.0115 101.342 22.9698 101.811 23.0216C102.28 23.0734 102.734 23.2178 103.146 23.4463C103.559 23.6748 103.922 23.9829 104.215 24.3528C104.507 24.7227 104.724 25.1469 104.851 25.601M68.6058 83.5538C70.5798 83.5538 72.1758 85.1811 72.1758 87.1863C72.1842 88.1419 71.8129 89.0617 71.1436 89.7438C70.4742 90.4259 69.5615 90.8144 68.6058 90.8241H24.9843C24.0287 90.8144 23.1159 90.4259 22.4466 89.7438C21.7772 89.0617 21.406 88.1419 21.4144 87.1863C21.4144 85.1758 23.0156 83.5485 24.9843 83.5485L68.6058 83.5538ZM68.6058 64.1522C70.5798 64.1522 72.1758 65.7795 72.1758 67.79C72.1842 68.7456 71.8129 69.6654 71.1436 70.3475C70.4742 71.0296 69.5615 71.4181 68.6058 71.4278H24.9843C24.0287 71.4181 23.1159 71.0296 22.4466 70.3475C21.7772 69.6654 21.406 68.7456 21.4144 67.79C21.4144 65.7848 23.0156 64.1522 24.9843 64.1522H68.6058Z" fill="black"/>
<path d="M128.263 62.06H132.963C133.465 62.06 133.778 62.2167 133.903 62.53C134.091 62.7807 134.029 63.1253 133.715 63.564L119.897 84.996V85.372L135.125 108.496C135.376 108.935 135.407 109.311 135.219 109.624C135.031 109.875 134.687 110 134.185 110H129.767C128.577 110 127.699 109.561 127.135 108.684L112.659 86.312C112.283 85.6853 112.283 85.0273 112.659 84.338L126.007 63.282C126.383 62.4673 127.135 62.06 128.263 62.06ZM106.643 110H102.413C101.536 110 101.097 109.561 101.097 108.684V45.234C101.097 44.3567 101.536 43.918 102.413 43.918H106.643C107.521 43.918 107.959 44.3567 107.959 45.234V108.684C107.959 109.561 107.521 110 106.643 110ZM160.633 110H155.745C151.421 110 148.006 108.778 145.499 106.334C143.055 103.89 141.833 100.475 141.833 96.088V75.972C141.833 71.5853 143.055 68.17 145.499 65.726C148.006 63.282 151.421 62.06 155.745 62.06H176.143C177.02 62.06 177.459 62.4987 177.459 63.376V108.684C177.459 109.561 177.02 110 176.143 110H171.913C171.036 110 170.597 109.561 170.597 108.684V105.018H170.221C168.654 108.339 165.458 110 160.633 110ZM170.597 95.336V68.922C170.597 68.358 170.284 68.076 169.657 68.076H156.497C151.296 68.076 148.695 70.802 148.695 76.254V95.806C148.695 101.258 151.296 103.984 156.497 103.984H161.855C164.675 103.984 166.837 103.232 168.341 101.728C169.845 100.224 170.597 98.0933 170.597 95.336ZM195.962 110H191.732C190.854 110 190.416 109.561 190.416 108.684V63.376C190.416 62.4987 190.854 62.06 191.732 62.06H195.962C196.839 62.06 197.278 62.4987 197.278 63.376V67.136H197.654C198.28 65.7573 199.471 64.5667 201.226 63.564C202.98 62.5613 205.048 62.06 207.43 62.06H211.096C211.91 62.06 212.318 62.4987 212.318 63.376V66.854C212.318 67.2927 212.224 67.6373 212.036 67.888C211.848 68.076 211.534 68.1387 211.096 68.076H206.02C203.2 68.076 201.038 68.922 199.534 70.614C198.03 72.306 197.278 74.6247 197.278 77.57V108.684C197.278 109.561 196.839 110 195.962 110ZM222.586 68.076H217.416C216.539 68.076 216.1 67.6687 216.1 66.854V63.376C216.1 62.4987 216.539 62.06 217.416 62.06H222.586C223.213 62.06 223.526 61.778 223.526 61.214V53.13C223.526 52.2527 223.965 51.814 224.842 51.814H229.072C229.887 51.814 230.294 52.2527 230.294 53.13V61.214C230.294 61.778 230.639 62.06 231.328 62.06H241.292C242.232 62.06 242.702 62.4987 242.702 63.376V66.854C242.702 67.6687 242.232 68.076 241.292 68.076H231.328C230.639 68.076 230.294 68.358 230.294 68.922V95.994C230.294 101.321 233.052 103.984 238.566 103.984H242.232C243.172 103.984 243.642 104.423 243.642 105.3V108.778C243.642 109.593 243.172 110 242.232 110H237.72C233.396 110 229.95 108.809 227.38 106.428C224.811 103.984 223.526 100.6 223.526 96.276V68.922C223.526 68.358 223.213 68.076 222.586 68.076ZM259.118 123.724H254.888C254.011 123.724 253.572 123.285 253.572 122.408V63.376C253.572 62.4987 254.011 62.06 254.888 62.06H259.118C259.995 62.06 260.434 62.4987 260.434 63.376V67.042H260.81C262.377 63.7207 265.573 62.06 270.398 62.06H276.038C280.299 62.06 283.589 63.282 285.908 65.726C288.289 68.17 289.48 71.5853 289.48 75.972V96.088C289.48 100.475 288.289 103.89 285.908 106.334C283.589 108.778 280.299 110 276.038 110H270.398C265.573 110 262.377 108.339 260.81 105.018H260.434V122.408C260.434 123.285 259.995 123.724 259.118 123.724ZM269.176 103.984H274.722C280.049 103.984 282.712 101.258 282.712 95.806V76.254C282.712 70.802 280.049 68.076 274.722 68.076H269.176C266.356 68.076 264.194 68.828 262.69 70.332C261.186 71.836 260.434 73.9667 260.434 76.724V95.336C260.434 98.0933 261.186 100.224 262.69 101.728C264.194 103.232 266.356 103.984 269.176 103.984ZM307.036 110H302.806C301.929 110 301.49 109.561 301.49 108.684V63.376C301.49 62.4987 301.929 62.06 302.806 62.06H307.036C307.913 62.06 308.352 62.4987 308.352 63.376V67.136H308.728C309.355 65.7573 310.545 64.5667 312.3 63.564C314.055 62.5613 316.123 62.06 318.504 62.06H322.17C322.985 62.06 323.392 62.4987 323.392 63.376V66.854C323.392 67.2927 323.298 67.6373 323.11 67.888C322.922 68.076 322.609 68.1387 322.17 68.076H317.094C314.274 68.076 312.112 68.922 310.608 70.614C309.104 72.306 308.352 74.6247 308.352 77.57V108.684C308.352 109.561 307.913 110 307.036 110ZM352.931 110H344.847C340.523 110 337.107 108.778 334.601 106.334C332.157 103.89 330.935 100.475 330.935 96.088V75.972C330.935 71.5853 332.157 68.17 334.601 65.726C337.107 63.282 340.523 62.06 344.847 62.06H352.931C357.255 62.06 360.639 63.282 363.083 65.726C365.589 68.17 366.843 71.5853 366.843 75.972V96.088C366.843 100.475 365.589 103.89 363.083 106.334C360.639 108.778 357.255 110 352.931 110ZM345.599 103.984H352.179C357.443 103.984 360.075 101.289 360.075 95.9V76.16C360.075 70.7707 357.443 68.076 352.179 68.076H345.599C340.335 68.076 337.703 70.7707 337.703 76.16V95.9C337.703 101.289 340.335 103.984 345.599 103.984Z" fill="black"/>
</g>
<defs>
<clipPath id="clip0_321_6">
<rect width="398" height="128" fill="white"/>
</clipPath>
</defs>
</svg>
